{"title":"Housefull 3 (2016) x264 DesiSCR AAC -DDR","uid":14789200,"size":1100200379,"categoryP":"video","categoryS":"movies","magnet":"?xt=urn:btih:0fcfd50d74dcb56dab2026924419b1f4ccf95b49&amp;dn=Housefull+3+%282016%29+x264+DesiSCR+AAC+-DDR&amp;tr=udp%3A%2F%2Ftracker.leechers-paradise.org%3A6969&amp;tr=udp%3A%2F%2Fzer0day.ch%3A1337&amp;tr=udp%3A%2F%2Fopen.demonii.com%3A1337&amp;tr=udp%3A%2F%2Ftracker.coppersurfer.tk%3A6969&amp;tr=udp%3A%2F%2Fexodus.desync.com%3A6969","seeders":3,"leechers":2,"uploader":"SaM","files":3,"time":1465045622,"description":"- BollywooD MoviE -\r\n**- Housefull 3 -**\r\n- 2016 -\r\n** Desi SCR / x264 / AAC 2.0 **\r\nNo subtitle(s)\r\n\r\n ~* SCREENSHOTS *~\r\n \nhttp://extraimago.com/image/aeje \nhttp://extraimago.com/image/aejZ \nhttp://extraimago.com/image/aejK \nhttp://extraimago.com/image/aejJ \nhttp://extraimago.com/image/aej0 \nhttp://extraimago.com/image/aejz \nhttp://extraimago.com/image/aejU \nhttp://extraimago.com/image/aejM \nhttp://extraimago.com/image/aej9 \nhttp://extraimago.com/image/aej3 \nhttp://extraimago.com/image/aejb \nhttp://extraimago.com/image/aejh \nhttp://extraimago.com/image/aejd \nhttp://extraimago.com/image/aejI \nhttp://extraimago.com/image/aejl \nhttp://extraimago.com/image/aeji\r\n\r\n[ Specs ]\r\nGeneral\r\nSource = DesiSCR @ DDR\r\nFormat : Matroska\r\nFormat version : Version 4 / Version 2\r\nFile size : 1.01 GiB\r\nDuration : 2h 11mn\r\nOverall bit rate : 1 099 Kbps\r\n\r\nVideo\r\nID : 1\r\nFormat : AVC\r\nFormat/Info : Advanced Video Codec\r\nFormat profile :   \r\nFormat settings, CABAC : Yes\r\nFormat settings, ReFrames : 5 frames\r\nDuration : 2h 11mn\r\nBit rate : 1 001 Kbps\r\nWidth : 720 pixels\r\nHeight : 304 pixels\r\nDisplay aspect ratio : 2.35:1\r\nFrame rate mode : Constant\r\nFrame rate : 25.000 fps\r\nColor space : YUV\r\nChroma subsampling : 4:2:0\r\nBit depth : 8 bits\r\nScan type : Progressive\r\nBits/(Pixel*Frame) : 0.183\r\nStream size : 944 MiB (91%)\r\nLanguage : English\r\nDefault : Yes\r\nForced : No\r\n\r\nAudio\r\nID : 2\r\nFormat : AAC\r\nFormat profile : LC\r\nDuration : 2h 11mn\r\nBit rate : 96.0 Kbps\r\nChannel(s) : 1 channel\r\nChannel positions : Front: C\r\nSampling rate : 48.0 KHz\r\nCompression mode : Lossy\r\nStream size : 90.5 MiB (9%)\r\nDefault : Yes\r\nForced : No\r\nChapters: No\r\nSample: YES - included\r\n\r\nA DDR Exclusive Release...!","torrent":{"xt":"urn:btih:0fcfd50d74dcb56dab2026924419b1f4ccf95b49","amp;dn":"Housefull+3+%282016%29+x264+DesiSCR+AAC+-DDR","amp;tr":["udp%3A%2F%2Ftracker.leechers-paradise.org%3A6969","udp%3A%2F%2Fzer0day.ch%3A1337","udp%3A%2F%2Fopen.demonii.com%3A1337","udp%3A%2F%2Ftracker.coppersurfer.tk%3A6969","udp%3A%2F%2Fexodus.desync.com%3A6969"],"infoHash":"0fcfd50d74dcb56dab2026924419b1f4ccf95b49","infoHashBuffer":{"type":"Buffer","data":[15,207,213,13,116,220,181,109,171,32,38,146,68,25,177,244,204,249,91,73]},"announce":[],"urlList":[]}}